<svg xmlns="http://www.w3.org/2000/svg" viewBox="0 0 278.66 148.46"><defs><style>.cls-1{fill:#fff;}</style></defs><title>Recurso 1sentidos2</title><g id="Capa_2" data-name="Capa 2"><g id="Capa_1-2" data-name="Capa 1"><path class="cls-1" d="M46.44,148.46a23.76,23.76,0,0,1-9-1.78,20.06,20.06,0,0,1-9.36-8,21.19,21.19,0,0,1-3-10.84,26.72,26.72,0,0,1,3.32-12.62A59.89,59.89,0,0,1,52,91.34l-9-5A233.46,233.46,0,0,1,13.51,68.07a38.38,38.38,0,0,1-8.76-8.61A24.33,24.33,0,0,1,0,44.8a27.59,27.59,0,0,1,1.83-10Q6.09,24.17,16.48,15.45A75,75,0,0,1,36.93,3.22a47.09,47.09,0,0,1,11.83-3A25.5,25.5,0,0,1,52.38,0c.92,0,2.15.07,3.68.2a18.9,18.9,0,0,1,5.55,1.56A16,16,0,0,1,67.3,5.82a17.77,17.77,0,0,1,3.64,6,30.14,30.14,0,0,1,1.53,10q0,1.39-.12,2.82A3.44,3.44,0,0,1,71.19,27a3.56,3.56,0,0,1-2.43.91,3.34,3.34,0,0,1-2.57-1.19,3.57,3.57,0,0,1-.89-2.42.76.76,0,0,1,0-.35,30.41,30.41,0,0,0,.19-3.42Q65.54,6.2,52,6.19A36.66,36.66,0,0,0,39.06,8.86,60.19,60.19,0,0,0,20.45,20.1q-9.12,8-12.58,17A22.62,22.62,0,0,0,6.29,45.3q0,10.2,10.79,18.21A214,214,0,0,0,45.54,81.88l3.07,1.78q4.3,2.43,8.62,5a73,73,0,0,1,29.45-6.83,1.82,1.82,0,0,1,1.36.52,2,2,0,0,1,.57,1.31A1.85,1.85,0,0,1,88.09,85a1.83,1.83,0,0,1-1.31.57c-.53,0-1,0-1.53,0a64.43,64.43,0,0,0-25,5q2.52,1.64,5,3.42,12.42,8.67,13.36,20V115a27.81,27.81,0,0,1-2.27,11.14,39.42,39.42,0,0,1-6.32,10.27,37.51,37.51,0,0,1-9.13,7.8A26.74,26.74,0,0,1,46.44,148.46Zm-.3-3.56a23.37,23.37,0,0,0,12.87-4,34.17,34.17,0,0,0,13.56-16.39,23.4,23.4,0,0,0,1.84-9,16.3,16.3,0,0,0-3.92-10.54,39.65,39.65,0,0,0-8-7.18q-3.62-2.52-7.47-4.8-16.14,8.52-23.91,23.61a23.61,23.61,0,0,0-2.87,11A17.64,17.64,0,0,0,30.84,137a16.75,16.75,0,0,0,7.87,6.53A20.48,20.48,0,0,0,46.14,144.9Z"/><path class="cls-1" d="M95.84,101.24a7.32,7.32,0,0,1-5-2,14.1,14.1,0,0,1-3.46-5,23.79,23.79,0,0,1-.6-17.23q2.63-7.58,9-8.66l.75,0a6.65,6.65,0,0,1,2.82.64,5.91,5.91,0,0,1,3.41,5.6v.34a15.59,15.59,0,0,1-3.56,8,20.89,20.89,0,0,1-4,4.14,7.17,7.17,0,0,1-4.31,1.85c.36,3.67,1.17,6.32,2.43,8a3.73,3.73,0,0,0,3,1.54,6,6,0,0,0,4.25-2,28.79,28.79,0,0,0,5.35-8.72c.79-1.58,1.25-2.54,1.39-2.87a7.36,7.36,0,0,1,1.58-2.13,1,1,0,0,1,.74-.29,1.13,1.13,0,0,1,.87.34,1.1,1.1,0,0,1,.32.75v.29a1,1,0,0,1-.54.8A4.37,4.37,0,0,0,109,86.19a21.65,21.65,0,0,0-1.14,2.32l-2.43,4.86q-3.31,6.48-8.36,7.77A9,9,0,0,1,95.84,101.24Zm-5-15.1a4.86,4.86,0,0,0,2.77-1.29,18.12,18.12,0,0,0,5.65-8,5.47,5.47,0,0,0,.44-2A3.09,3.09,0,0,0,99.21,73a2.49,2.49,0,0,0-2-1.09q-2.13,0-3.81,2.48c-1.75,3.06-2.63,7-2.63,11.73Z"/><path class="cls-1" d="M111.34,107.33l-.5,0a3.52,3.52,0,0,1-2.13-1.14,11.21,11.21,0,0,1-.79-1.29l0-.2a7.51,7.51,0,0,1-.49-2.52c-.14-1.49-.2-3.24-.2-5.25q0-4.75.54-11.53,1.25-15.06,2.68-16a2.49,2.49,0,0,1,1.48-.45,2.24,2.24,0,0,1,1.73.84,2.27,2.27,0,0,1,.55,1.54q-.1,11.28-.4,19.55Q119.89,76.48,125.2,71a10.23,10.23,0,0,1,3.71-2.43,5.37,5.37,0,0,1,1.73-.29A4.38,4.38,0,0,1,134,69.6a8.83,8.83,0,0,1,1.88,3.77.57.57,0,0,0,.05.24,38.36,38.36,0,0,1,1,7.43l.15,1.48a41.22,41.22,0,0,0,.64,5.5c.46,2.67,1.4,4.08,2.82,4.21s2.92-1.16,4.51-3.47a30.87,30.87,0,0,0,3.32-6.09,1.57,1.57,0,0,1,1.48-1,1.44,1.44,0,0,1,.65.15,1.61,1.61,0,0,1,1,1.49,1.84,1.84,0,0,1-.15.64l-.05.1Q145.94,94.8,140.4,95a4.87,4.87,0,0,1-4.06-2.53q-2.19-3.56-2.78-12.62-.54-8.22-2.62-8.22a2.14,2.14,0,0,0-.84.2q-1.89.84-4.06,4.46-3.47,5.83-9.11,23l-1.24,3.61a9.17,9.17,0,0,1-1.23,2.62,3.69,3.69,0,0,1-1.19,1.22A3.37,3.37,0,0,1,111.34,107.33Z"/><path class="cls-1" d="M159.06,115.1h-.25a6.13,6.13,0,0,1-2.23-.4,7.77,7.77,0,0,1-3.46-3,23.72,23.72,0,0,1-1.79-3.66,61.93,61.93,0,0,1-3.26-14.7q-.6-6.09-.6-12.13a281.59,281.59,0,0,1,2.33-35.75,125.25,125.25,0,0,1-13.76,1q-2.82,0-5.64-.24a11.62,11.62,0,0,1-6.24-2.08A3.51,3.51,0,0,1,123,41.48a1.17,1.17,0,0,1,.42-.81,1.27,1.27,0,0,1,.87-.32,1.15,1.15,0,0,1,1.14,1.06c.09.64.67,1.1,1.73,1.36a26,26,0,0,0,6.24.55,159.87,159.87,0,0,0,17-1.39q.93-5.49,1.13-5.49a3.16,3.16,0,0,1,.45-1.14l.3-.45a2.32,2.32,0,0,1,1.68-.74,2.09,2.09,0,0,1,1.53.64c.3.3.45.51.45.65a2,2,0,0,1,.25.74,1.05,1.05,0,0,0,.05.39v0a2.81,2.81,0,0,1-.65,2.13v.15a23.2,23.2,0,0,0-.29,2.48L158,41a138.57,138.57,0,0,1,15.94-1.34c1.06,0,2.13,0,3.22.1q4.2.2,6.33,2a3,3,0,0,1,1,2.28c0,.92-.38,1.39-1.13,1.39a1,1,0,0,1-1.14-1.09,1.15,1.15,0,0,0-.45-.8c-.82-.62-2.28-.94-4.36-.94h-1.13a54.31,54.31,0,0,0-6.89.45Q156.29,44.56,155,44.9q-1.59,19-1.58,35.5,0,12.72.59,19.65c.3,4.32,1,7.61,2.13,9.85.72,1.52,1.6,2.28,2.62,2.28s2.18-.84,3.27-2.53q2.78-4.45,5.1-13.17,2.13-8.12,2.87-10.54a10.94,10.94,0,0,1,1.14-2.77.92.92,0,0,0,.12-.2,2,2,0,0,1,.32-.4,1.6,1.6,0,0,1,1.14-.59,1.57,1.57,0,0,1,.5.1,1,1,0,0,1,.64,1,1,1,0,0,1-.59,1,.08.08,0,0,1,0,.07l-.07.08q-.8.88-3,9.3-1.83,7.08-3,10.6Q164,114.36,159.06,115.1Z"/><path class="cls-1" d="M174.45,105a1.77,1.77,0,0,1-1.73-1,22.06,22.06,0,0,1-1.43-6.63,88.35,88.35,0,0,1-.6-9.86c0-1.71.07-3.41.2-5.09q.45-7.57,2.13-8.62a2.63,2.63,0,0,1,1.39-.39l.54,0a2.56,2.56,0,0,1,2,2.32v.05c.1,1.42.15,2.86.15,4.31L177,82.67q-.19,7-.74,13.86a41.21,41.21,0,0,0-.35,5.3l.05,1.49a1.6,1.6,0,0,1-.42,1.11A1.81,1.81,0,0,1,174.45,105Zm.35-35a2.72,2.72,0,0,1-1.34-.5,2.11,2.11,0,0,1-.79-1.93,9.45,9.45,0,0,1,.5-2.94c.33-1,.86-1.51,1.58-1.51a1.73,1.73,0,0,1,1.66,1,5.42,5.42,0,0,1,.52,2.47,4.37,4.37,0,0,1-.62,2.4A1.77,1.77,0,0,1,174.8,70Z"/><path class="cls-1" d="M212.87,124.11a1.55,1.55,0,0,1-1.34-.74,0,0,0,0,1-.05-.05l-.24-.4a3.76,3.76,0,0,1-.18-.47c0-.08,0-.12-.07-.12q-.94-3.08-1.63-12.63-.95-12.72-.94-24.3V78.66q0-10.93.29-19.65-1.83,8.87-4.11,17.62A99.87,99.87,0,0,1,198,95.54a18.79,18.79,0,0,1-4.16,5.89,6.37,6.37,0,0,1-4.5,1.69,5.61,5.61,0,0,1-3.94-1.59,10.76,10.76,0,0,1-2.55-3.41,20.81,20.81,0,0,1-2-9.31A23.65,23.65,0,0,1,182.62,80q3.27-8.86,10.5-10.89a10.16,10.16,0,0,1,2.23-.25,9.14,9.14,0,0,1,5.69,2,8,8,0,0,1,1.88,2.13q2.47-10.78,5-26.39,1.38-8.55,1.58-11a4.58,4.58,0,0,1,.1-.89l.05-.24a2.79,2.79,0,0,1,.35-1.19,5.73,5.73,0,0,1,.57-.69l.17-.15a2.63,2.63,0,0,1,1.59-.4l.69.25a1.88,1.88,0,0,1,.59.44l.25.3.35.54v.15l.2,1.19.09,1.09c.1,1.19.15,3.61.15,7.28q0,8.65-.64,20.25-1.14,25.44-1.14,37.37,0,8.17.45,15.25c.1,1.71.24,3.3.44,4.75l.2.79a1.43,1.43,0,0,1,.4.94,2,2,0,0,1-.1.55A1.37,1.37,0,0,1,212.87,124.11Zm-23-24.65a3.51,3.51,0,0,0,1.88-.7,14.52,14.52,0,0,0,3.81-4.5q3-5.3,6.09-16.44h-.05v0a5,5,0,0,0-2.52-4.26,5.68,5.68,0,0,0-2.48-.64,5.28,5.28,0,0,0-2.18.5A8,8,0,0,0,191,76.88a36.21,36.21,0,0,0-4,16.73,8.88,8.88,0,0,0,1.34,4.9A1.84,1.84,0,0,0,189.9,99.46Z"/><path class="cls-1" d="M228.81,103h-1a7.33,7.33,0,0,1-4.7-2.72,16.3,16.3,0,0,1-2.92-6.74,33.16,33.16,0,0,1-.55-5.94,26.08,26.08,0,0,1,3.72-14.11,8.72,8.72,0,0,1,6.83-4.5,2.55,2.55,0,0,1,.74.1.62.62,0,0,0,.25,0,5.56,5.56,0,0,1,3.22,2.42,23.18,23.18,0,0,1,3.11,11.93,9.41,9.41,0,0,0,2.28.3A10.78,10.78,0,0,0,245,82.08a1.29,1.29,0,0,1,1.26-.15,1,1,0,0,1,.57.5,1.36,1.36,0,0,1,.25.74,1.28,1.28,0,0,1-.65,1.14v0h-.05a13.3,13.3,0,0,1-6.63,1.93,12.73,12.73,0,0,1-2.23-.3,40.72,40.72,0,0,1-1.78,11.09,8.39,8.39,0,0,1-4.9,5.49A7.1,7.1,0,0,1,228.81,103Zm.74-3.61q2.38,0,3.82-3.27,1.73-3.91,1.73-10.89a10.69,10.69,0,0,1-1.88-1.09,12.72,12.72,0,0,1-5.2-8,0,0,0,0,0-.05,0v0q-2.58,5.15-2.57,13.07c0,3.66.46,6.42,1.38,8.26a2.81,2.81,0,0,0,1.64,1.54l.09,0a4.54,4.54,0,0,1,.5.12A1.85,1.85,0,0,0,229.55,99.36ZM235,82.47A20,20,0,0,0,232.23,73a2.09,2.09,0,0,0-.4-.55,2.25,2.25,0,0,1-1,.7l-.44.2a13.81,13.81,0,0,0,1.13,4.95A9,9,0,0,0,235,82.47Z"/><path class="cls-1" d="M256.48,124.36a14,14,0,0,1-7.57-2.08,14.82,14.82,0,0,1-6.44-8.67,17.61,17.61,0,0,1-.49-4.11,16.49,16.49,0,0,1,1.34-6.53,26.56,26.56,0,0,1,6-8.61,41.79,41.79,0,0,1,4.6-3.82q-4.26-3.06-8.07-5.64A10.78,10.78,0,0,1,243.46,83a7.17,7.17,0,0,1-2.13-5.2,8.92,8.92,0,0,1,1.34-4.65,18.57,18.57,0,0,1,3.57-4.46,32,32,0,0,1,9.1-5.94,18.05,18.05,0,0,1,5.55-1.48h.4a6.26,6.26,0,0,1,3.31.84,4.3,4.3,0,0,1,2,3.91,2.22,2.22,0,0,1-.62,1.48,1.92,1.92,0,0,1-1.46.6,1.94,1.94,0,0,1-1.41-.55,2.27,2.27,0,0,1-.67-1.43,1.36,1.36,0,0,0-.09-.45q-.11-.15-.75-.15a10.3,10.3,0,0,0-4.5,1.29A26.79,26.79,0,0,0,249.55,72a14,14,0,0,0-2.62,3.41,5.28,5.28,0,0,0-.69,2.33,2.27,2.27,0,0,0,.09.65,5.25,5.25,0,0,0,2.28,2.32q6.88,4.52,10,6.83,9.81-5.44,18.72-5.69a1.36,1.36,0,0,1-.05,2.72h-.35q-7.43,0-16.24,4.61a3.11,3.11,0,0,0,.5.39,43.08,43.08,0,0,1,7.37,7.68,18.56,18.56,0,0,1,3.91,10.49,17.17,17.17,0,0,1-3.56,10.55A15.09,15.09,0,0,1,256.48,124.36Zm-.39-2.83a11.74,11.74,0,0,0,10.2-5.14,12.83,12.83,0,0,0,2.22-7.18l-.05-1.19q-1.14-7.58-12.52-15.94-7.62,5-10.4,11.78a14.87,14.87,0,0,0-1.14,5.6,14,14,0,0,0,.45,3.51,11.69,11.69,0,0,0,5.4,7A11.37,11.37,0,0,0,256.09,121.53Z"/></g></g></svg>